<svg width="1440" height="394" xmlns="http://www.w3.org/2000/svg">
    <g>
        <path d="M-79,-63L-149,93L119,55Z" fill="#30b45d" stroke="#30b45d"/>
        <path d="M-79,-63L119,55L148,-65Z" fill="#30b65d" stroke="#30b65d"/>
        <path d="M-79,-63L148,-65L368,-137Z" fill="#30b95d" stroke="#30b95d"/>
        <path d="M148,-65L119,55L347,95Z" fill="#30b05c" stroke="#30b05c"/>
        <path d="M148,-65L347,95L368,-137Z" fill="#30b35d" stroke="#30b35d"/>
        <path d="M368,-137L347,95L427,65Z" fill="#30ae5c" stroke="#30ae5c"/>
        <path d="M368,-137L427,65L555,-56Z" fill="#30b15c" stroke="#30b15c"/>
        <path d="M368,-137L555,-56L691,-77Z" fill="#30b35c" stroke="#30b35c"/>
        <path d="M368,-137L691,-77L1271,-164Z" fill="#2fb25c" stroke="#2fb25c"/>
        <path d="M555,-56L427,65L622,110Z" fill="#30a95b" stroke="#30a95b"/>
        <path d="M555,-56L622,110L691,-77Z" fill="#2fab5b" stroke="#2fab5b"/>
        <path d="M691,-77L622,110L920,47Z" fill="#2fa75b" stroke="#2fa75b"/>
        <path d="M691,-77L920,47L902,-47Z" fill="#2fa95b" stroke="#2fa95b"/>
        <path d="M691,-77L902,-47L1271,-164Z" fill="#2fac5b" stroke="#2fac5b"/>
        <path d="M902,-47L920,47L1030,58Z" fill="#2fa45b" stroke="#2fa45b"/>
        <path d="M902,-47L1030,58L1132,-49Z" fill="#2fa55b" stroke="#2fa55b"/>
        <path d="M902,-47L1132,-49L1271,-164Z" fill="#2fa95b" stroke="#2fa95b"/>
        <path d="M1132,-49L1030,58L1273,133Z" fill="#2f9f5a" stroke="#2f9f5a"/>
        <path d="M1132,-49L1273,133L1412,-32Z" fill="#2e9f5a" stroke="#2e9f5a"/>
        <path d="M1132,-49L1412,-32L1271,-164Z" fill="#2ea65b" stroke="#2ea65b"/>
        <path d="M1271,-164L1412,-32L1580,-120Z" fill="#2ea65b" stroke="#2ea65b"/>
        <path d="M1412,-32L1273,133L1480,89Z" fill="#2e9a59" stroke="#2e9a59"/>
        <path d="M1412,-32L1480,89L1580,-120Z" fill="#2e9e5a" stroke="#2e9e5a"/>
        <path d="M1580,-120L1480,89L1665,147Z" fill="#2e9859" stroke="#2e9859"/>
        <path d="M-149,93L-174,488L-144,326Z" fill="#30a15b" stroke="#30a15b"/>
        <path d="M-149,93L-144,326L51,297Z" fill="#30a55b" stroke="#30a55b"/>
        <path d="M-149,93L51,297L119,55Z" fill="#30aa5c" stroke="#30aa5c"/>
        <path d="M119,55L51,297L311,306Z" fill="#30a35b" stroke="#30a35b"/>
        <path d="M119,55L311,306L347,95Z" fill="#30a65b" stroke="#30a65b"/>
        <path d="M347,95L311,306L541,327Z" fill="#309d5a" stroke="#309d5a"/>
        <path d="M347,95L541,327L427,65Z" fill="#30a25b" stroke="#30a25b"/>
        <path d="M427,65L541,327L622,110Z" fill="#30a05a" stroke="#30a05a"/>
        <path d="M622,110L541,327L615,303Z" fill="#2f995a" stroke="#2f995a"/>
        <path d="M622,110L615,303L820,216Z" fill="#2f9a5a" stroke="#2f9a5a"/>
        <path d="M622,110L820,216L920,47Z" fill="#2f9f5a" stroke="#2f9f5a"/>
        <path d="M920,47L820,216L1030,58Z" fill="#2f9e5a" stroke="#2f9e5a"/>
        <path d="M1030,58L820,216L1029,359Z" fill="#2f9659" stroke="#2f9659"/>
        <path d="M1030,58L1029,359L1273,133Z" fill="#2f9559" stroke="#2f9559"/>
        <path d="M1273,133L1029,359L1186,420Z" fill="#2f8b58" stroke="#2f8b58"/>
        <path d="M1273,133L1186,420L1319,317Z" fill="#2f8b58" stroke="#2f8b58"/>
        <path d="M1273,133L1319,317L1422,219Z" fill="#2e8e58" stroke="#2e8e58"/>
        <path d="M1273,133L1422,219L1480,89Z" fill="#2e9359" stroke="#2e9359"/>
        <path d="M1480,89L1422,219L1665,147Z" fill="#2e9159" stroke="#2e9159"/>
        <path d="M1665,147L1422,219L1635,349Z" fill="#2e8a57" stroke="#2e8a57"/>
        <path d="M1665,147L1635,349L1715,496Z" fill="#2e8157" stroke="#2e8157"/>
        <path d="M-144,326L-174,488L51,297Z" fill="#309b5a" stroke="#309b5a"/>
        <path d="M51,297L-174,488L138,550Z" fill="#309459" stroke="#309459"/>
        <path d="M51,297L138,550L311,306Z" fill="#309659" stroke="#309659"/>
        <path d="M311,306L138,550L265,562Z" fill="#308e59" stroke="#308e59"/>
        <path d="M311,306L265,562L437,456Z" fill="#308f59" stroke="#308f59"/>
        <path d="M311,306L437,456L541,327Z" fill="#309459" stroke="#309459"/>
        <path d="M541,327L437,456L633,501Z" fill="#308d58" stroke="#308d58"/>
        <path d="M541,327L633,501L615,303Z" fill="#2f9059" stroke="#2f9059"/>
        <path d="M615,303L633,501L822,424Z" fill="#2f8c58" stroke="#2f8c58"/>
        <path d="M615,303L822,424L820,216Z" fill="#2f9259" stroke="#2f9259"/>
        <path d="M820,216L822,424L1029,359Z" fill="#2f8e58" stroke="#2f8e58"/>
        <path d="M1029,359L822,424L1076,458Z" fill="#2f8658" stroke="#2f8658"/>
        <path d="M1029,359L1076,458L1186,420Z" fill="#2f8457" stroke="#2f8457"/>
        <path d="M1319,317L1186,420L1469,527Z" fill="#2e8057" stroke="#2e8057"/>
        <path d="M1319,317L1469,527L1422,219Z" fill="#2e8457" stroke="#2e8457"/>
        <path d="M1422,219L1469,527L1635,349Z" fill="#2e8157" stroke="#2e8157"/>
        <path d="M1635,349L1469,527L1715,496Z" fill="#2e7956" stroke="#2e7956"/>
        <path d="M-174,488L-104,690L138,550Z" fill="#308c58" stroke="#308c58"/>
        <path d="M138,550L-104,690L105,721Z" fill="#308458" stroke="#308458"/>
        <path d="M138,550L105,721L265,562Z" fill="#308558" stroke="#308558"/>
        <path d="M265,562L105,721L313,683Z" fill="#308157" stroke="#308157"/>
        <path d="M265,562L313,683L437,649Z" fill="#308157" stroke="#308157"/>
        <path d="M265,562L437,649L437,456Z" fill="#308658" stroke="#308658"/>
        <path d="M437,456L437,649L633,501Z" fill="#308558" stroke="#308558"/>
        <path d="M633,501L437,649L731,643Z" fill="#2f7f57" stroke="#2f7f57"/>
        <path d="M633,501L731,643L822,424Z" fill="#2f8357" stroke="#2f8357"/>
        <path d="M822,424L731,643L839,609Z" fill="#2f7f57" stroke="#2f7f57"/>
        <path d="M822,424L839,609L1076,458Z" fill="#2f8257" stroke="#2f8257"/>
        <path d="M1076,458L839,609L1002,652Z" fill="#2f7b56" stroke="#2f7b56"/>
        <path d="M1076,458L1002,652L1334,732Z" fill="#2f7556" stroke="#2f7556"/>
        <path d="M1076,458L1334,732L1186,420Z" fill="#2f7a56" stroke="#2f7a56"/>
        <path d="M1186,420L1334,732L1379,648Z" fill="#2e7456" stroke="#2e7456"/>
        <path d="M1186,420L1379,648L1469,527Z" fill="#2e7856" stroke="#2e7856"/>
        <path d="M1469,527L1379,648L1641,626Z" fill="#2e7055" stroke="#2e7055"/>
        <path d="M1469,527L1641,626L1715,496Z" fill="#2e7255" stroke="#2e7255"/>
        <path d="M105,721L1334,732L313,683Z" fill="#2f7756" stroke="#2f7756"/>
        <path d="M313,683L1334,732L731,643Z" fill="#2f7656" stroke="#2f7656"/>
        <path d="M313,683L731,643L437,649Z" fill="#307d57" stroke="#307d57"/>
        <path d="M731,643L1334,732L1002,652Z" fill="#2f7356" stroke="#2f7356"/>
        <path d="M731,643L1002,652L839,609Z" fill="#2f7856" stroke="#2f7856"/>
        <path d="M1334,732L1641,626L1379,648Z" fill="#2e6c55" stroke="#2e6c55"/>
    </g>
</svg>